<?xml version="1.0" ?><svg enable-background="new 0 0 186.9844 186.9864" id="dribbble" version="1.1" viewBox="0 0 186.9844 186.9864" xml:space="preserve" xmlns="http://www.w3.org/2000/svg" xmlns:xlink="http://www.w3.org/1999/xlink"><g><path d="M177.8008,103.0196c-3.5684,29.9296-22.496,55.072-48.6876,67.4452c0.008,0.2248,0.01,0.4491,0.016,0.674   c27.3512-12.1272,45.7577-37.5508,49.1168-67.9824C178.0996,103.1092,177.9492,103.0664,177.8008,103.0196z" fill="none"/><path d="M106.5216,95.996c-1.9396-5.1912-4.0236-10.2344-6.2424-15.0956   c-14.494,5.9472-29.7888,8.998-45.5468,8.998c-15.8632,0-31.2324-3.0685-45.7752-9.0725C8.3284,85.0352,8,89.2772,8,93.496   c0,24.4356,10.3008,47.3264,28.428,63.5724C50.6972,128.0604,75.8516,106.1408,106.5216,95.996z" fill="#FF6B97"/><path d="M177.8008,103.0196c-19.6932-6.1288-40.8496-6.7188-60.8904-1.674   c7.4548,22.336,11.5525,45.5312,12.2028,69.1192C155.3048,158.0916,174.2324,132.9492,177.8008,103.0196z" fill="#FF6B97"/><path d="M104.1292,70.3556c18.7888-9.2112,34.4392-23.2796,45.6072-41.014C134.1016,15.6036,114.2872,8,93.4904,8   c-10.0155,0-19.8088,1.7616-29.2012,5.2012C80.3476,30.2948,93.7208,49.4784,104.1292,70.3556z" fill="#FF6B97"/><path d="M157.7304,25.6756l-3.6444-3.4528l-0.1231,0.2108C137.0292,7.9884,115.7812,0,93.4904,0   C81.3692,0,69.5488,2.3576,58.2952,6.9512l-0.0528-0.0548l-2.5256,1.1172C28.1836,20.2012,8.096,44.996,1.9804,74.336   L1.332,77.4472l0.0784,0.0372C0.4904,82.7892,0,88.1584,0,93.496c0,27.5468,11.9884,53.2776,32.9532,71.1192l-0.0352,0.082   l2.4084,1.918c16.736,13.3264,36.8476,20.3712,58.162,20.3712c11.254,0,22.42-2.0765,33.1896-6.174l2.578-0.9804v-0.1152   c31.158-12.494,52.4492-40.3124,56.75-73.994l0.2244,0.078l0.3988-5.1776c0.166-2.166,0.3552-4.6213,0.3552-7.1272   C186.9844,67.6408,176.596,43.5548,157.7304,25.6756z M178.9629,94.92c-11.2265-3.3712-22.8357-5.0764-34.5897-5.0764   c-10.1524,0-20.2616,1.2872-30.1036,3.8303c-2.0372-5.4903-4.244-10.8419-6.584-15.9843l0.0333-0.0157l-0.0293-0.0627   c19.658-9.6348,36.1248-24.2536,48.0312-42.6288C170.76,50.912,178.9844,71.5059,178.9844,93.496   C178.9844,93.9728,178.9768,94.4472,178.9629,94.92z M36.428,157.0684C18.3008,140.8224,8,117.9316,8,93.496   c0-4.2188,0.3284-8.4608,0.9572-12.6701c14.5428,6.004,29.912,9.0725,45.7752,9.0725c15.758,0,31.0528-3.0508,45.5468-8.998   c2.2188,4.8612,4.3028,9.9044,6.2424,15.0956C75.8516,106.1408,50.6972,128.0604,36.428,157.0684z M56.4456,16.4884   C72.8284,33.4939,86.418,52.7032,96.9024,73.6796c-13.4235,5.4552-27.59,8.2188-42.17,8.2188   c-15.3436,0-30.1992-3.0468-44.2048-9.0605C16.6309,48.2752,33.5236,27.5352,56.4456,16.4884z M149.7364,29.3416   c-11.168,17.7344-26.8184,31.8028-45.6072,41.014c-10.4084-20.8772-23.7816-40.0608-39.84-57.1544   C73.6816,9.7616,83.4749,8,93.4904,8C114.2872,8,134.1016,15.6036,149.7364,29.3416z M42.7756,162.252   c13.2033-27.9784,37.1524-49.1444,66.4688-58.7756c7.668,22.84,11.6972,46.6252,11.994,70.8008   c-9.0488,3.1252-18.3712,4.7092-27.75,4.7092C75.0392,178.9864,57.5724,173.2108,42.7756,162.252z M129.1292,171.1388   c-0.006-0.2249-0.008-0.4492-0.016-0.674c-0.6503-23.588-4.748-46.7832-12.2028-69.1192   c20.0408-5.0448,41.1972-4.4548,60.8904,1.674c0.1484,0.0468,0.2988,0.0896,0.4452,0.1368   C174.8869,133.588,156.4804,159.0116,129.1292,171.1388z" fill="#FFFFFF"/><path d="M155.7208,34.9824c-11.9064,18.3752-28.3732,32.994-48.0312,42.6288l0.0293,0.0627l-0.0333,0.0157   c2.34,5.1424,4.5468,10.494,6.584,15.9843c9.842-2.5431,19.9512-3.8303,30.1036-3.8303c11.754,0,23.3632,1.7052,34.5897,5.0764   c0.0139-0.4728,0.0215-0.9472,0.0215-1.424C178.9844,71.5059,170.76,50.912,155.7208,34.9824z" fill="#FF6B97"/><path d="M109.2444,103.4764c-29.3164,9.6312-53.2655,30.7972-66.4688,58.7756   c14.7968,10.9588,32.2636,16.7344,50.7128,16.7344c9.3788,0,18.7012-1.584,27.75-4.7092   C120.9416,150.1016,116.9124,126.3164,109.2444,103.4764z" fill="#FF6B97"/><path d="M54.7324,81.8984c14.58,0,28.7465-2.7636,42.17-8.2188C86.418,52.7032,72.8284,33.4939,56.4456,16.4884   c-22.922,11.0468-39.8147,31.7868-45.918,56.3495C24.5332,78.8516,39.3888,81.8984,54.7324,81.8984z" fill="#FF6B97"/></g></svg>